<?xml version="1.0" encoding="utf-8"?>
<!-- Generator: Adobe Illustrator 15.0.0, SVG Export Plug-In  -->
<!DOCTYPE svg PUBLIC "-//W3C//DTD SVG 1.1//EN" "http://www.w3.org/Graphics/SVG/1.1/DTD/svg11.dtd" [
	<!ENTITY ns_flows "http://ns.adobe.com/Flows/1.0/">
]>
<svg version="1.1"
	 xmlns="http://www.w3.org/2000/svg" xmlns:xlink="http://www.w3.org/1999/xlink" xmlns:a="http://ns.adobe.com/AdobeSVGViewerExtensions/3.0/"
	 x="0px" y="0px" width="510px" height="8px" viewBox="-3.694 -1.228 510 8"
	 overflow="visible" enable-background="new -3.694 -1.228 510 8" xml:space="preserve">
<defs>
</defs>
<path fill="#939598" d="M0,2.772C0,1.188,1.091,0,2.619,0c1.528,0,2.576,1.144,2.576,2.772c0,1.584-1.047,2.772-2.663,2.772
	C1.048,5.545,0,4.356,0,2.772z"/>
<path fill="#939598" d="M17.765,2.772C17.765,1.188,18.856,0,20.384,0c1.528,0,2.576,1.144,2.576,2.772
	c0,1.584-1.047,2.772-2.663,2.772C18.812,5.545,17.765,4.356,17.765,2.772z"/>
<path fill="#939598" d="M35.53,2.772C35.53,1.188,36.621,0,38.149,0c1.528,0,2.575,1.144,2.575,2.772
	c0,1.584-1.047,2.772-2.663,2.772C36.578,5.545,35.53,4.356,35.53,2.772z"/>
<path fill="#939598" d="M53.294,2.772c0-1.584,1.091-2.772,2.62-2.772c1.528,0,2.575,1.144,2.575,2.772
	c0,1.584-1.047,2.772-2.663,2.772C54.342,5.545,53.294,4.356,53.294,2.772z"/>
<path fill="#939598" d="M71.06,2.772C71.06,1.188,72.151,0,73.679,0c1.528,0,2.576,1.144,2.576,2.772
	c0,1.584-1.047,2.772-2.663,2.772C72.107,5.545,71.06,4.356,71.06,2.772z"/>
<path fill="#939598" d="M88.824,2.772C88.824,1.188,89.916,0,91.443,0c1.528,0,2.576,1.144,2.576,2.772
	c0,1.584-1.047,2.772-2.663,2.772C89.872,5.545,88.824,4.356,88.824,2.772z"/>
<path fill="#939598" d="M106.589,2.772c0-1.584,1.091-2.772,2.62-2.772c1.528,0,2.575,1.144,2.575,2.772
	c0,1.584-1.047,2.772-2.663,2.772C107.637,5.545,106.589,4.356,106.589,2.772z"/>
<path fill="#939598" d="M124.354,2.772c0-1.584,1.091-2.772,2.62-2.772c1.528,0,2.575,1.144,2.575,2.772
	c0,1.584-1.047,2.772-2.663,2.772C125.402,5.545,124.354,4.356,124.354,2.772z"/>
<path fill="#939598" d="M142.119,2.772c0-1.584,1.091-2.772,2.619-2.772c1.528,0,2.576,1.144,2.576,2.772
	c0,1.584-1.047,2.772-2.663,2.772C143.167,5.545,142.119,4.356,142.119,2.772z"/>
<path fill="#939598" d="M159.884,2.772c0-1.584,1.091-2.772,2.619-2.772c1.528,0,2.576,1.144,2.576,2.772
	c0,1.584-1.047,2.772-2.663,2.772C160.932,5.545,159.884,4.356,159.884,2.772z"/>
<path fill="#939598" d="M177.649,2.772c0-1.584,1.091-2.772,2.62-2.772c1.528,0,2.575,1.144,2.575,2.772
	c0,1.584-1.047,2.772-2.663,2.772C178.697,5.545,177.649,4.356,177.649,2.772z"/>
<path fill="#939598" d="M195.414,2.772c0-1.584,1.091-2.772,2.62-2.772c1.528,0,2.575,1.144,2.575,2.772
	c0,1.584-1.047,2.772-2.663,2.772C196.461,5.545,195.414,4.356,195.414,2.772z"/>
<path fill="#939598" d="M213.179,2.772c0-1.584,1.091-2.772,2.619-2.772c1.528,0,2.576,1.144,2.576,2.772
	c0,1.584-1.047,2.772-2.663,2.772C214.227,5.545,213.179,4.356,213.179,2.772z"/>
<path fill="#939598" d="M230.943,2.772c0-1.584,1.091-2.772,2.619-2.772c1.528,0,2.576,1.144,2.576,2.772
	c0,1.584-1.047,2.772-2.663,2.772C231.991,5.545,230.943,4.356,230.943,2.772z"/>
<path fill="#939598" d="M248.708,2.772c0-1.584,1.091-2.772,2.62-2.772s2.575,1.144,2.575,2.772c0,1.584-1.047,2.772-2.663,2.772
	C249.756,5.545,248.708,4.356,248.708,2.772z"/>
<path fill="#939598" d="M266.474,2.772c0-1.584,1.091-2.772,2.619-2.772c1.527,0,2.575,1.144,2.575,2.772
	c0,1.584-1.048,2.772-2.663,2.772C267.521,5.545,266.474,4.356,266.474,2.772z"/>
<path fill="#939598" d="M284.238,2.772c0-1.584,1.091-2.772,2.619-2.772c1.527,0,2.575,1.144,2.575,2.772
	c0,1.584-1.048,2.772-2.663,2.772C285.285,5.545,284.238,4.356,284.238,2.772z"/>
<path fill="#939598" d="M302.004,2.772c0-1.584,1.091-2.772,2.619-2.772c1.527,0,2.575,1.144,2.575,2.772
	c0,1.584-1.048,2.772-2.663,2.772C303.051,5.545,302.004,4.356,302.004,2.772z"/>
<path fill="#939598" d="M319.769,2.772c0-1.584,1.091-2.772,2.619-2.772c1.527,0,2.575,1.144,2.575,2.772
	c0,1.584-1.048,2.772-2.663,2.772C320.815,5.545,319.769,4.356,319.769,2.772z"/>
<path fill="#939598" d="M337.533,2.772c0-1.584,1.091-2.772,2.619-2.772c1.527,0,2.575,1.144,2.575,2.772
	c0,1.584-1.048,2.772-2.663,2.772C338.58,5.545,337.533,4.356,337.533,2.772z"/>
<path fill="#939598" d="M355.298,2.772c0-1.584,1.091-2.772,2.619-2.772c1.527,0,2.575,1.144,2.575,2.772
	c0,1.584-1.048,2.772-2.663,2.772C356.345,5.545,355.298,4.356,355.298,2.772z"/>
<path fill="#939598" d="M373.063,2.772c0-1.584,1.091-2.772,2.619-2.772c1.527,0,2.575,1.144,2.575,2.772
	c0,1.584-1.048,2.772-2.663,2.772C374.11,5.545,373.063,4.356,373.063,2.772z"/>
<path fill="#939598" d="M390.828,2.772c0-1.584,1.091-2.772,2.619-2.772c1.527,0,2.575,1.144,2.575,2.772
	c0,1.584-1.048,2.772-2.663,2.772C391.875,5.545,390.828,4.356,390.828,2.772z"/>
<path fill="#939598" d="M408.593,2.772c0-1.584,1.091-2.772,2.619-2.772c1.527,0,2.575,1.144,2.575,2.772
	c0,1.584-1.048,2.772-2.663,2.772C409.64,5.545,408.593,4.356,408.593,2.772z"/>
<path fill="#939598" d="M426.357,2.772c0-1.584,1.091-2.772,2.619-2.772c1.527,0,2.575,1.144,2.575,2.772
	c0,1.584-1.048,2.772-2.663,2.772C427.404,5.545,426.357,4.356,426.357,2.772z"/>
<path fill="#939598" d="M444.123,2.772c0-1.584,1.091-2.772,2.619-2.772c1.527,0,2.575,1.144,2.575,2.772
	c0,1.584-1.048,2.772-2.663,2.772C445.17,5.545,444.123,4.356,444.123,2.772z"/>
<path fill="#939598" d="M461.888,2.772c0-1.584,1.091-2.772,2.619-2.772c1.527,0,2.575,1.144,2.575,2.772
	c0,1.584-1.048,2.772-2.663,2.772C462.935,5.545,461.888,4.356,461.888,2.772z"/>
<path fill="#939598" d="M479.652,2.772c0-1.584,1.091-2.772,2.619-2.772c1.527,0,2.575,1.144,2.575,2.772
	c0,1.584-1.048,2.772-2.663,2.772C480.699,5.545,479.652,4.356,479.652,2.772z"/>
<path fill="#939598" d="M497.417,2.772c0-1.584,1.091-2.772,2.619-2.772c1.527,0,2.575,1.144,2.575,2.772
	c0,1.584-1.048,2.772-2.663,2.772C498.464,5.545,497.417,4.356,497.417,2.772z"/>
</svg>
